<svg width="316" height="144" viewBox="0 0 316 144" fill="none" xmlns="http://www.w3.org/2000/svg">
<path fill-rule="evenodd" clip-rule="evenodd" d="M32.4108 54.1935C20.9971 54.1935 15 62.512 15 71.9912C15 81.6639 20.4167 89.789 32.0239 89.5955C36.4734 89.9824 40.5359 88.4348 43.8246 85.7264C45.1788 84.5657 45.3723 82.6312 44.405 81.0835C43.4377 79.7294 41.3097 79.5359 39.9555 80.5032C37.8276 82.4377 35.1192 83.5984 32.2174 83.5984C24.6727 83.5984 20.9971 77.7948 20.9971 71.7978C20.9971 65.8007 24.6727 60.384 32.4108 60.384C35.1192 60.1905 37.6341 61.1578 39.3752 63.0923C40.5359 64.4465 42.4704 64.4465 43.8246 63.2858C44.9853 61.9316 44.9853 59.8036 43.6312 58.6429C40.7294 55.7411 36.6668 54.1935 32.4108 54.1935ZM53.3039 89.402C55.0449 89.402 56.5926 87.8544 56.5926 86.1133V77.2145H64.3307L71.8754 87.8544C71.8754 88.0479 71.8754 88.0479 72.0689 88.2413C73.2296 89.789 75.3576 89.9824 76.7118 88.8217C78.2594 87.661 78.4529 85.533 77.2921 84.1788L70.7147 76.2472C81.1612 72.1847 78.6463 55.3542 66.0718 55.3542H52.917C51.3693 55.3542 50.0151 56.7084 50.0151 58.256V86.1133C50.0151 87.8544 51.5628 89.402 53.3039 89.402ZM66.0718 71.6043H56.5926V61.1578H66.0718C72.8427 61.1578 72.4558 71.6043 66.0718 71.6043ZM85.6106 56.5149C82.9023 52.6458 77.679 56.7084 80.0005 59.9971L90.6404 76.0537V86.1133C90.6404 87.8544 92.1881 89.402 93.9292 89.402C95.6702 89.402 97.2179 87.8544 97.2179 86.1133V75.8603L108.438 59.8036C111.147 56.5149 105.73 52.8393 103.021 56.5149L94.3161 69.4763L85.6106 56.5149ZM116.176 54.7738C114.435 54.9673 112.888 56.3214 112.888 58.256V86.1133C112.888 87.8544 114.242 89.402 116.176 89.402H116.563C118.304 89.2086 119.465 87.661 119.272 85.9199V79.3424H127.59H128.751C135.135 78.9555 140.165 73.5388 139.778 67.1549V65.9941C139.584 59.6102 134.168 54.5804 127.59 54.7738H116.176ZM119.272 73.3454V60.9643H127.59C130.685 61.1578 133.2 63.6727 133.394 66.7679C133.587 70.2501 131.072 73.1519 127.59 73.3454H119.272ZM144.808 61.3512H153.319V86.3068C153.319 88.0479 154.867 89.5955 156.608 89.5955C158.349 89.5955 159.897 88.0479 159.897 86.3068V61.3512H168.022H168.602C170.343 61.1578 171.698 59.6102 171.504 57.8691C171.311 56.128 169.763 54.7738 168.022 54.9673H144.808H144.227C142.486 55.1607 141.132 56.7084 141.325 58.4494C141.519 60.1905 143.066 61.5447 144.808 61.3512ZM172.471 72.1847C172.471 84.3722 181.951 90.3693 191.043 89.9824H192.01C201.49 89.5955 209.034 81.6639 208.647 72.1847C208.647 60.384 199.748 54.3869 191.043 54C181.951 54 172.471 59.9971 172.471 72.1847ZM178.855 71.4108C179.049 65.0269 184.272 60.1905 190.463 60.384C190.656 60.384 190.85 60.384 191.043 60.5774C197.427 60.7709 202.263 65.9941 202.07 72.1847C202.07 78.5686 196.847 83.7919 190.463 83.7919C184.079 83.7919 178.855 78.5686 178.855 72.1847V71.4108ZM217.546 54.7739C215.805 54.9673 214.257 56.3215 214.257 58.256V85.9199C214.257 87.661 215.611 89.2087 217.546 89.2087H217.933C219.481 89.2087 220.835 87.661 220.641 85.9199V79.3425H228.96H230.121C236.504 78.9556 241.534 73.5389 241.147 67.1549V65.9942C240.954 59.6102 235.537 54.5804 228.96 54.7739H217.546ZM220.641 73.3454V60.9644H228.96C232.055 61.1578 234.57 63.6727 234.763 66.768C234.957 70.2502 232.442 73.152 228.96 73.3454H220.641ZM240.567 84.7592C239.6 86.5003 240.374 88.6283 242.115 89.4021C243.662 89.9825 245.597 89.2087 246.564 87.8545L248.692 83.5985H266.877L269.005 87.8545C270.939 91.7236 276.743 88.6283 274.808 84.7592L260.88 57.0953C260.493 56.3215 259.912 55.7411 259.139 55.3542C257.398 54.5804 255.463 55.3542 254.689 57.0953L240.567 84.7592ZM257.784 64.64L263.395 76.8276H251.787L257.784 64.64ZM278.291 56.7084C275.582 52.8393 270.359 56.9019 272.68 59.9971L283.514 76.0538V86.3068C283.514 88.0479 285.061 89.5956 286.802 89.5956C288.544 89.5956 290.091 88.0479 290.091 86.3068V76.0538L301.312 59.9971C303.826 56.7084 298.41 53.0328 295.701 56.7084L286.996 69.6698L278.291 56.7084Z" fill="black"/>
</svg>
