<svg width="316" height="144" viewBox="0 0 316 144" fill="none" xmlns="http://www.w3.org/2000/svg">
<g clip-path="url(#clip0)">
<path d="M83.0964 58.8745C84.0446 58.847 84.9929 58.922 85.9249 59.0982C86.9052 59.2983 87.8605 59.6052 88.7738 60.0133C91.0226 61.0467 92.9545 62.6615 94.3698 64.6908C95.1769 65.8394 95.7951 67.1095 96.2012 68.453C96.6808 70.0123 96.8806 71.644 96.7914 73.2728C96.6523 75.4099 96.0333 77.4882 94.9803 79.3534C93.4702 81.977 91.129 84.0234 88.3261 85.1697C86.0912 86.1069 83.6426 86.4163 81.2447 86.0645C79.9836 85.8914 78.7516 85.5494 77.5818 85.0477C76.1424 84.4142 74.8213 83.5409 73.6748 82.4649C72.7056 81.5594 71.8819 80.5099 71.2329 79.3534C70.7323 78.5168 70.3359 77.6221 70.0527 76.6894C69.9509 76.3233 69.8288 75.9572 69.7474 75.5912C69.3845 74.1431 69.2744 72.6433 69.4218 71.1578C69.7474 68.5954 70.6021 66.216 72.2097 64.162C73.803 62.0584 75.9838 60.4734 78.4772 59.6066C80.1255 59.0372 80.8784 58.8542 83.0964 58.8745Z" fill="black"/>
<path d="M238.564 53.4243L238.889 53.3429H243.529C243.633 53.3604 243.735 53.3877 243.834 53.4243C243.976 53.7496 243.915 54.075 243.915 54.4004V69.9376C243.896 70.2575 243.916 70.5786 243.976 70.8934L244.241 70.9544H246.764L249.918 67.2328L254.802 61.3759C256.918 58.8541 259.035 56.3731 261.11 53.8513C261.436 53.4853 261.741 53.3022 262.209 53.3226H267.093L267.642 53.3632C267.785 53.648 267.602 53.8106 267.459 53.953L265.2 56.6171C263.817 58.2237 262.433 59.8099 261.07 61.4165L257.468 65.6059L252.096 71.8899C251.976 72.0375 251.867 72.1938 251.77 72.3576L252.157 72.8864L256.633 78.2553L260.479 82.8513L267.317 90.986C267.785 91.5554 268.232 92.1248 268.721 92.6739C268.843 92.8366 268.945 92.979 268.823 93.223C268.701 93.467 268.416 93.284 268.212 93.284H263.003C262.774 93.2997 262.544 93.2555 262.337 93.1557C262.13 93.0558 261.953 92.9038 261.823 92.7146C259.36 89.7048 256.878 86.7153 254.395 83.7055L249.918 78.3569L247.822 75.7945C247.66 75.5912 247.476 75.4285 247.334 75.2658H244.017C243.97 75.4176 243.943 75.5748 243.936 75.7335C243.915 75.9775 243.915 76.2216 243.915 76.4656V92.1655C243.915 92.4705 243.915 92.7959 243.895 93.162C243.736 93.2133 243.573 93.2474 243.407 93.2637H239.011L238.584 93.2027C238.533 93.0219 238.493 92.8386 238.462 92.6536C238.441 92.4502 238.441 92.2265 238.441 92.0028C238.441 79.5161 238.448 67.0227 238.462 54.5224C238.462 54.1767 238.38 53.7903 238.564 53.4243Z" fill="black"/>
<path d="M181.301 81.8141C181.362 82.2209 181.464 82.6073 181.504 83.014C181.728 84.946 182.746 86.3899 184.251 87.5287C185.097 88.1562 186.039 88.6437 187.039 88.9726C188.409 89.4247 189.852 89.6178 191.292 89.5421C192.737 89.4404 194.141 89.1963 195.464 88.5456C196.787 87.8948 198.028 86.7559 198.557 85.19C198.923 84.1301 198.986 82.9894 198.74 81.8955C198.333 79.8415 197.031 78.4586 195.24 77.4825C194.072 76.8664 192.845 76.369 191.577 75.9979C190.621 75.6928 189.644 75.4895 188.688 75.1844C187.176 74.7516 185.705 74.1868 184.292 73.4965C182.931 72.8403 181.659 72.0134 180.507 71.0358C179.13 69.8815 178.114 68.3571 177.577 66.643C177.201 65.3918 177.077 64.0786 177.211 62.7791C177.357 60.6871 178.186 58.701 179.571 57.1255C180.846 55.6788 182.442 54.5505 184.231 53.831C185.486 53.32 186.809 52.9979 188.158 52.8752C188.708 52.8142 189.278 52.7328 189.847 52.7125C191.419 52.6599 192.991 52.8034 194.528 53.1395C196.062 53.4819 197.523 54.0948 198.842 54.9495C200.293 55.9109 201.526 57.1647 202.464 58.6304C203.21 59.7653 203.722 61.0374 203.97 62.3724C204.119 63.0603 204.187 63.7633 204.173 64.467C204.173 64.7721 204.051 64.9144 203.726 64.9144H198.984C198.914 64.7365 198.86 64.5528 198.821 64.3653C198.754 63.6906 198.624 63.0235 198.435 62.3724C197.824 60.4404 196.542 59.0778 194.813 58.122C193.725 57.4886 192.49 57.152 191.231 57.1459C190.438 57.1459 189.603 57.0848 188.81 57.1865C186.734 57.4306 184.923 58.2034 183.743 60.0133C182.562 61.8233 182.359 63.6536 183.071 65.6059C183.263 66.0526 183.516 66.4702 183.824 66.8464C184.618 67.8836 185.696 68.575 186.836 69.1241C188.208 69.7779 189.639 70.3022 191.109 70.69C192.551 71.0504 193.97 71.4917 195.362 72.0119C197.336 72.805 199.228 73.7812 200.856 75.2251C202.491 76.6301 203.638 78.5168 204.133 80.6143C204.421 81.9368 204.476 83.2995 204.295 84.6409C204.034 86.5875 203.166 88.4022 201.813 89.8268C201.072 90.6121 200.214 91.2776 199.269 91.7994C197.975 92.5384 196.575 93.0734 195.118 93.3857C192.786 93.8966 190.382 93.993 188.016 93.6704C187.156 93.559 186.306 93.3822 185.472 93.1416C183.651 92.6079 181.936 91.7615 180.405 90.6402C179.501 89.9976 178.699 89.2229 178.025 88.3422C176.884 86.8488 176.212 85.0515 176.091 83.1767C176.071 82.8513 176.051 82.5259 176.051 82.2005C176.051 81.8752 176.173 81.7531 176.478 81.7125H176.56L181.118 81.7531L181.301 81.8141Z" fill="black"/>
<path d="M209.749 53.4446C209.832 53.4046 209.922 53.3771 210.013 53.3633H233.7C233.804 53.3808 233.906 53.408 234.005 53.4446C234.127 54.0547 234.147 56.7798 234.025 57.634L233.415 57.6746H215.304C215.284 57.9187 215.243 58.122 215.223 58.3254V69.4699C215.19 69.7706 215.218 70.0748 215.304 70.3647C215.63 70.507 215.955 70.446 216.281 70.446H231.522C231.644 71.1782 231.583 71.8899 231.583 72.5814C231.583 73.2728 231.604 73.9236 231.563 74.5947C231.237 74.7777 230.952 74.7167 230.647 74.7167H215.324C215.279 74.8759 215.252 75.0396 215.243 75.2048C215.226 75.3669 215.219 75.5299 215.223 75.6929V87.8948C215.223 88.1999 215.162 88.5456 215.345 88.8507C215.528 89.1557 215.914 88.9523 216.199 88.9523H233.374C233.66 88.9204 233.95 88.9411 234.229 89.0134C234.371 89.6438 234.391 92.2469 234.269 93.1417C234.129 93.1805 233.986 93.2077 233.842 93.223H209.81C209.76 93.0571 209.726 92.8869 209.708 92.7146C209.688 92.5113 209.688 92.2876 209.688 92.0639V54.4818C209.667 54.1349 209.687 53.7867 209.749 53.4446Z" fill="black"/>
<path d="M133.114 82.2616L133.725 82.2209H137.937C138.022 82.2257 138.102 82.2616 138.162 82.3216C138.222 82.3816 138.258 82.4615 138.263 82.5463C138.286 82.6738 138.3 82.803 138.303 82.9327C138.317 83.8832 138.489 84.8247 138.812 85.7188C139.321 87.2237 140.298 88.3219 141.742 88.9116C143.187 89.5014 145.08 89.7658 146.83 89.2167C148.58 88.6676 149.841 87.5084 150.676 85.8408C151.299 84.5182 151.619 83.0729 151.612 81.6108V54.4614C151.612 54.136 151.612 53.8106 151.632 53.4446C151.756 53.3943 151.886 53.3602 152.019 53.3429H156.577C156.749 53.361 156.919 53.3951 157.086 53.4446C157.106 53.77 157.126 54.0547 157.126 54.3597V81.0414C157.157 82.5341 156.993 84.0245 156.638 85.4747C156.25 86.9733 155.549 88.3731 154.583 89.5827C153.599 90.8412 152.338 91.857 150.899 92.5519C149.807 93.0876 148.641 93.4577 147.44 93.6501C146.094 93.8564 144.729 93.9109 143.37 93.8127C141.478 93.6704 139.626 93.223 137.957 92.2875C136.495 91.5028 135.266 90.3451 134.396 88.932C133.894 88.0607 133.517 87.1227 133.277 86.1458C133.037 85.1474 132.928 84.122 132.952 83.0954C132.952 82.831 132.911 82.5463 133.114 82.2616Z" fill="black"/>
<path d="M169.926 93.223C169.112 93.345 165.306 93.3247 164.655 93.2027C164.635 93.101 164.574 92.9586 164.554 92.8366C164.533 92.7146 164.533 92.4095 164.533 92.1858V54.4614C164.533 54.136 164.554 53.8106 164.574 53.4649C164.706 53.4167 164.842 53.3826 164.981 53.3632C166.527 53.3361 168.074 53.3361 169.621 53.3632C169.739 53.3754 169.855 53.4027 169.966 53.4446C169.997 53.599 170.017 53.7553 170.027 53.9123C170.048 54.136 170.048 54.3394 170.048 54.5631C170.048 67.0769 170.041 79.5771 170.027 92.0638C170.027 92.4299 170.109 92.8163 169.926 93.223Z" fill="black"/>
<path d="M272.586 53.4446C272.653 53.4002 272.73 53.3723 272.81 53.3633H277.531C277.633 53.3633 277.735 53.4243 277.877 53.4446C278.02 53.465 277.959 53.7497 277.979 53.9124C277.999 54.0751 277.999 54.4615 277.999 54.7258V91.9418C277.999 92.2062 277.999 92.4706 277.979 92.7553C277.959 93.04 277.897 93.0603 277.857 93.223C277.267 93.3654 276.697 93.284 276.127 93.3044H272.607C272.566 93.0807 272.525 92.8977 272.505 92.7146C272.485 92.5316 272.485 92.1859 272.485 91.9012V54.6445C272.448 54.2417 272.483 53.8356 272.586 53.4446Z" fill="black"/>
<path d="M66.8783 100.87C66.8891 99.834 67.3111 98.8451 68.0514 98.1205C68.7918 97.3958 69.7898 96.9948 70.826 97.0056C71.8622 97.0164 72.8517 97.4381 73.5768 98.178C74.3019 98.9179 74.7031 99.9153 74.6923 100.951C74.6516 103.168 73.0644 104.835 70.7446 104.835C70.2282 104.835 69.717 104.732 69.2412 104.532C68.7653 104.331 68.3345 104.037 67.9741 103.668C67.6137 103.298 67.3311 102.86 67.1429 102.379C66.9547 101.899 66.8647 101.385 66.8783 100.87Z" fill="black"/>
<path d="M82.5264 45.6557C80.4101 45.798 78.6397 43.7847 78.6397 41.812C78.637 41.2976 78.7361 40.7876 78.9312 40.3116C79.1264 39.8355 79.4138 39.4026 79.7768 39.0379C80.1399 38.6732 80.5715 38.3837 81.0469 38.1862C81.5222 37.9887 82.0319 37.8871 82.5467 37.8871C84.8665 37.9074 86.4334 39.6157 86.4537 41.7917C86.4741 43.9677 84.6427 45.7777 82.5264 45.6557Z" fill="black"/>
<path d="M107.109 60.7251C106.966 58.7931 108.777 56.8205 111.036 56.8612C112.072 56.8719 113.062 57.2937 113.787 58.0336C114.512 58.7734 114.913 59.7709 114.902 60.8064C114.891 61.842 114.469 62.8309 113.729 63.5555C112.989 64.2802 111.991 64.6812 110.955 64.6704C108.757 64.6704 106.966 62.7791 107.109 60.7251Z" fill="black"/>
<path d="M64.7016 94.2399C64.707 94.7534 64.6104 95.2628 64.4175 95.7388C64.2246 96.2148 63.9392 96.6478 63.5777 97.0128C63.2163 97.3778 62.786 97.6676 62.3118 97.8653C61.8375 98.063 61.3288 98.1648 60.8149 98.1648C58.719 98.1445 56.9283 96.5582 56.8876 94.3415C56.8768 93.8254 56.9685 93.3122 57.1575 92.8317C57.3465 92.3512 57.6289 91.9129 57.9885 91.5422C58.348 91.1716 58.7776 90.8758 59.2523 90.6721C59.7269 90.4684 60.2373 90.3608 60.7539 90.3556C62.9109 90.3149 64.7627 92.1859 64.7016 94.2399Z" fill="black"/>
<path d="M50.2526 84.2952C50.212 82.0582 51.962 80.4719 54.1393 80.3499C56.5609 80.5533 57.9039 82.1192 58.0871 84.3156C57.8836 86.5119 56.4591 88.1388 54.1597 88.1795C53.6453 88.1905 53.134 88.0977 52.6563 87.9067C52.1787 87.7156 51.7445 87.4303 51.3797 87.0676C51.015 86.705 50.7272 86.2726 50.5335 85.7962C50.3398 85.3198 50.2443 84.8093 50.2526 84.2952Z" fill="black"/>
<path d="M64.7008 50.8008C64.6982 51.3206 64.5919 51.8346 64.388 52.3127C64.1841 52.7908 63.8868 53.2234 63.5134 53.5852C63.1401 53.947 62.6982 54.2306 62.2137 54.4195C61.7292 54.6084 61.2119 54.6987 60.692 54.6851C58.9623 54.6445 56.9071 53.2616 56.8867 50.8212C56.884 49.7856 57.2931 48.7914 58.0239 48.0572C58.7547 47.323 59.7474 46.9091 60.7836 46.9064C61.8198 46.9037 62.8146 47.3125 63.5492 48.0428C64.2839 48.7732 64.6981 49.7653 64.7008 50.8008Z" fill="black"/>
<path d="M50.2532 60.7861C50.2424 60.2779 50.3326 59.7727 50.5185 59.2996C50.7044 58.8265 50.9823 58.395 51.3362 58.0299C51.6901 57.6649 52.1129 57.3737 52.5802 57.173C53.0475 56.9724 53.5499 56.8664 54.0585 56.8611C56.3376 56.8408 58.0876 58.6101 58.0469 60.7861C58.0062 62.9621 56.3579 64.589 54.1806 64.6704C52.3492 64.7314 50.1922 63.1655 50.2532 60.7861Z" fill="black"/>
<path d="M117.182 72.5407C117.283 74.5947 115.533 76.4249 113.356 76.4249C111.179 76.4249 109.388 74.737 109.408 72.4796C109.424 71.4601 109.841 70.4877 110.568 69.7724C111.295 69.0571 112.275 68.6562 113.295 68.6564C115.371 68.636 117.304 70.385 117.182 72.5407Z" fill="black"/>
<path d="M78.66 103.29C78.6491 102.775 78.7419 102.263 78.9328 101.784C79.1237 101.306 79.409 100.871 79.7715 100.504C80.1341 100.138 80.5666 99.8487 81.0433 99.6529C81.5201 99.4571 82.0313 99.3591 82.5467 99.3647C83.064 99.3592 83.5771 99.457 84.0561 99.6523C84.535 99.8477 84.9701 100.137 85.3359 100.502C85.7017 100.868 85.9908 101.303 86.1862 101.781C86.3817 102.26 86.4795 102.773 86.4741 103.29C86.4741 105.486 84.5409 107.215 82.5264 107.174C80.5118 107.133 78.6193 105.608 78.66 103.29Z" fill="black"/>
<path d="M66.8985 44.0897C66.9746 43.1057 67.4209 42.1871 68.1474 41.5185C68.8738 40.85 69.8267 40.4812 70.8142 40.4864C71.8018 40.4915 72.7507 40.8702 73.4702 41.5463C74.1897 42.2224 74.6263 43.1457 74.6922 44.1304C74.6922 46.2251 73.1049 47.9944 70.7648 48.0147C70.2495 48.0232 69.7379 47.9271 69.2609 47.7321C68.7839 47.5371 68.3516 47.2473 67.99 46.8802C67.6285 46.5132 67.3453 46.0766 67.1577 45.597C66.97 45.1173 66.8819 44.6045 66.8985 44.0897Z" fill="black"/>
<path d="M90.4834 100.931C90.3206 98.7749 92.2334 97.0056 94.3294 97.0259C95.3656 97.0205 96.3615 97.4267 97.098 98.1552C97.8345 98.8836 98.2513 99.8747 98.2567 100.91C98.2621 101.946 97.8557 102.941 97.1268 103.677C96.3979 104.413 95.4063 104.83 94.3701 104.835C92.0299 104.876 90.3206 102.883 90.4834 100.931Z" fill="black"/>
<path d="M51.799 68.6767C53.7526 68.5344 55.7061 70.202 55.6857 72.561C55.6654 74.9201 53.8543 76.425 51.8397 76.425C49.8252 76.425 47.9531 74.8794 47.892 72.561C47.831 70.2427 49.7845 68.5344 51.799 68.6767Z" fill="black"/>
<path d="M108.187 94.3619C108.248 96.4565 106.315 98.2258 104.198 98.1648C103.162 98.1406 102.178 97.7059 101.463 96.9565C100.747 96.2071 100.359 95.2043 100.383 94.1687C100.407 93.1331 100.842 92.1496 101.592 91.4345C102.342 90.7194 103.345 90.3313 104.381 90.3556C106.477 90.3759 108.309 92.1859 108.187 94.3619Z" fill="black"/>
<path d="M107.109 84.2952C106.987 82.3836 108.492 80.4923 110.995 80.3499C113.336 80.5126 114.882 82.1395 114.882 84.3155C114.882 86.4916 113.275 88.1592 110.995 88.1998C108.716 88.2405 106.966 86.1255 107.109 84.2952Z" fill="black"/>
<path d="M94.3289 40.2461C95.3597 40.2461 96.3483 40.6554 97.0772 41.3838C97.8061 42.1123 98.2156 43.1003 98.2156 44.1304C98.2156 45.1606 97.8061 46.1486 97.0772 46.877C96.3483 47.6055 95.3597 48.0147 94.3289 48.0147C92.1109 48.0351 90.3202 46.1234 90.4829 44.1711C90.3202 41.9748 92.2533 40.1851 94.3289 40.2461Z" fill="black"/>
<path d="M108.187 50.8008C108.288 52.8752 106.416 54.7055 104.279 54.6851C103.245 54.6691 102.259 54.2457 101.535 53.507C100.811 52.7682 100.408 51.7738 100.413 50.7398C100.421 49.7097 100.838 48.7249 101.573 48.0022C102.308 47.2794 103.3 46.878 104.33 46.886C105.361 46.8941 106.347 47.3111 107.07 48.0453C107.793 48.7795 108.195 49.7707 108.187 50.8008Z" fill="black"/>
<path d="M68.913 96.3752C67.3054 96.4768 65.3723 95.0329 65.3723 92.8162C65.3336 92.3195 65.3979 91.8202 65.5611 91.3495C65.7244 90.8788 65.9832 90.4468 66.3212 90.0806C66.6592 89.7144 67.0692 89.4219 67.5256 89.2214C67.9819 89.0209 68.4748 88.9166 68.9733 88.9152C69.4718 88.9138 69.9652 89.0153 70.4227 89.2132C70.8801 89.4112 71.2918 89.7014 71.6319 90.0657C71.972 90.4299 72.2331 90.8604 72.3991 91.3302C72.565 91.8 72.6321 92.299 72.5962 92.7959C72.6165 94.9516 70.7037 96.5379 68.913 96.3752Z" fill="black"/>
<path d="M77.7447 92.7959C78.2265 92.7959 78.7035 92.8914 79.1481 93.0769C79.5927 93.2624 79.996 93.5341 80.3348 93.8765C80.6736 94.2188 80.941 94.625 81.1217 95.0713C81.3023 95.5177 81.3926 95.9954 81.3872 96.4769C81.3465 98.3682 79.9831 99.9544 77.7447 100.097C75.4859 99.9138 74.1836 98.3275 74.1633 96.4362C74.1429 94.5449 75.954 92.7756 77.7447 92.7959Z" fill="black"/>
<path d="M83.6655 96.4362C83.6248 94.4432 85.3952 92.7349 87.3691 92.8163C89.3429 92.8976 90.9505 94.3212 90.9098 96.4972C90.8691 98.6732 89.2615 100.076 87.247 100.076C86.7699 100.082 86.2966 99.9914 85.8555 99.8097C85.4144 99.628 85.0146 99.359 84.6801 99.019C84.3455 98.679 84.0832 98.275 83.9089 97.8311C83.7346 97.3873 83.6518 96.9128 83.6655 96.4362Z" fill="black"/>
<path d="M106.518 64.162C107.474 64.178 108.385 64.5686 109.055 65.2495C109.725 65.9305 110.1 66.8473 110.1 67.8022C110.105 68.2774 110.016 68.7489 109.837 69.1892C109.658 69.6295 109.394 70.0298 109.058 70.3667C108.723 70.7037 108.324 70.9706 107.884 71.1518C107.445 71.333 106.974 71.4249 106.498 71.4222C104.504 71.4222 102.876 69.9376 102.876 67.7412C102.892 66.7864 103.283 65.8761 103.964 65.2065C104.646 64.537 105.563 64.1619 106.518 64.162Z" fill="black"/>
<path d="M62.2999 55.3766C63.9685 55.2139 65.922 56.8001 65.9016 58.9762C65.9043 59.9362 65.5253 60.858 64.8479 61.5388C64.1706 62.2196 63.2503 62.6036 62.2897 62.6063C61.329 62.609 60.4067 62.2302 59.7255 61.5532C59.0443 60.8762 58.6601 59.9566 58.6574 58.9965C58.637 56.6578 60.6719 55.2139 62.2999 55.3766Z" fill="black"/>
<path d="M68.9941 48.6248C69.9547 48.6248 70.876 49.0062 71.5553 49.6851C72.2346 50.3639 72.6162 51.2847 72.6162 52.2447C72.6162 53.2048 72.2346 54.1255 71.5553 54.8044C70.876 55.4833 69.9547 55.8646 68.9941 55.8646C68.5195 55.8674 68.0492 55.7754 67.6108 55.5939C67.1723 55.4125 66.7746 55.1453 66.4409 54.8081C66.1073 54.4708 65.8444 54.0703 65.6679 53.6301C65.4913 53.19 65.4045 52.7189 65.4126 52.2447C65.4126 50.1704 66.9795 48.6655 68.9941 48.6248Z" fill="black"/>
<path d="M96.1406 96.4158C95.6654 96.4322 95.1918 96.3528 94.7481 96.1823C94.3043 96.0119 93.8994 95.7538 93.5576 95.4236C93.2158 95.0933 92.944 94.6977 92.7585 94.2602C92.5729 93.8228 92.4775 93.3524 92.4777 92.8773C92.4574 90.8233 93.9429 89.176 96.0795 89.1964C98.2162 89.2167 99.7424 90.864 99.7017 92.8773C99.7044 93.3444 99.614 93.8075 99.4358 94.2394C99.2575 94.6713 98.995 95.0633 98.6635 95.3927C98.332 95.7221 97.9382 95.9822 97.505 96.1579C97.0718 96.3336 96.608 96.4213 96.1406 96.4158Z" fill="black"/>
<path d="M96.1204 55.8647C94.3297 55.946 92.5186 54.4208 92.4983 52.2854C92.4929 51.811 92.5814 51.3403 92.7588 50.9002C92.9361 50.4601 93.1987 50.0593 93.5316 49.721C93.8644 49.3827 94.2609 49.1135 94.6982 48.9289C95.1355 48.7443 95.605 48.6478 96.0797 48.6452C98.2978 48.6249 99.7222 50.3331 99.7426 52.2854C99.7453 52.7597 99.6532 53.2297 99.4717 53.6679C99.2901 54.1061 99.0228 54.5036 98.6853 54.837C98.3479 55.1705 97.9472 55.4331 97.5067 55.6096C97.0662 55.7861 96.5949 55.8728 96.1204 55.8647Z" fill="black"/>
<path d="M106.416 58.9965C106.559 61.1115 104.687 62.6368 102.876 62.6368C101.919 62.6368 101 62.2582 100.322 61.5837C99.6429 60.9092 99.2589 59.9937 99.2535 59.0372C99.2128 56.8002 101.227 55.3563 102.876 55.3563C104.524 55.3563 106.62 56.9018 106.416 58.9965Z" fill="black"/>
<path d="M87.3087 52.1634C85.1313 52.3464 83.6865 50.2314 83.6865 48.6045C83.6865 46.9775 85.2127 44.9642 87.4104 45.0252C88.3551 45.0359 89.2577 45.417 89.9239 46.0865C90.59 46.7561 90.9662 47.6603 90.9715 48.6045C90.9715 50.6585 89.3436 52.3261 87.3087 52.1634Z" fill="black"/>
<path d="M106.518 73.7406C108.105 73.5575 110.099 75.0218 110.099 77.3198C110.102 77.795 110.01 78.2659 109.829 78.7052C109.648 79.1445 109.381 79.5433 109.043 79.8784C108.706 80.2134 108.306 80.4781 107.865 80.6568C107.424 80.8355 106.953 80.9248 106.477 80.9194C104.361 80.9194 102.896 79.2721 102.855 77.3401C102.814 75.4082 104.727 73.5372 106.518 73.7406Z" fill="black"/>
<path d="M58.6571 64.1416C60.692 64.162 62.2793 65.6872 62.2386 67.7412C62.1979 69.7952 60.7734 71.3408 58.6571 71.3611C56.5408 71.3815 55.0146 69.6529 55.0146 67.7005C55.0146 65.7482 56.7036 64.0806 58.6571 64.1416Z" fill="black"/>
<path d="M62.2584 89.6438C60.7322 89.6641 59.6741 88.932 59.0026 87.6101C58.7806 87.1758 58.6513 86.7001 58.6231 86.2132C58.5948 85.7263 58.6682 85.2389 58.8385 84.7819C59.0088 84.3248 59.2723 83.9081 59.6123 83.5583C59.9524 83.2085 60.3614 82.9331 60.8136 82.7497C62.584 82.0582 64.4154 82.526 65.3922 84.2546C66.3689 85.9832 65.7584 88.6473 63.3776 89.4811C63.012 89.5779 62.6365 89.6325 62.2584 89.6438Z" fill="black"/>
<path d="M77.8258 45.0456C79.7996 44.9032 81.4479 46.7132 81.4479 48.6248C81.4479 50.5365 79.9014 52.3464 77.724 52.1634C75.9943 52.3058 74.1426 50.6585 74.1833 48.5232C74.224 46.3878 75.974 44.8829 77.8258 45.0456Z" fill="black"/>
<path d="M102.815 82.5056C104.748 82.3836 106.437 84.1122 106.437 86.0848C106.44 86.5593 106.349 87.0295 106.169 87.4686C105.989 87.9077 105.724 88.3069 105.389 88.6433C105.055 88.9797 104.657 89.2467 104.218 89.4288C103.78 89.611 103.31 89.7048 102.835 89.7048C100.638 89.6844 99.2539 88.0168 99.2336 86.1052C99.2132 84.1935 101.045 82.3836 102.815 82.5056Z" fill="black"/>
<path d="M58.6368 73.6999C60.4682 73.5778 62.2183 75.0014 62.2386 77.2588C62.259 79.5161 60.5089 80.9804 58.6368 80.8177C56.5409 81.0007 54.974 79.0281 54.9943 77.2181C55.0147 75.4081 56.4798 73.5575 58.6368 73.6999Z" fill="black"/>
<path d="M118.158 62.6978C118.525 62.6924 118.889 62.7599 119.23 62.8965C119.57 63.0331 119.88 63.236 120.142 63.4933C120.403 63.7507 120.61 64.0574 120.752 64.3957C120.894 64.7339 120.967 65.0969 120.967 65.4636C120.946 67.0701 119.542 68.1887 118.219 68.209C116.897 68.2293 115.432 67.1108 115.432 65.4229C115.432 64.04 116.673 62.6571 118.158 62.6978Z" fill="black"/>
<path d="M65.1076 42.3815C65.128 43.8864 63.7849 45.1066 62.3605 45.0862C61.6246 45.0755 60.9229 44.7745 60.4083 44.2487C59.8937 43.723 59.6079 43.0152 59.6134 42.2798C59.6337 40.9376 60.875 39.575 62.3808 39.575C63.8867 39.575 65.189 40.9172 65.1076 42.3815Z" fill="black"/>
<path d="M78.2127 108.15C78.2127 108.696 78.0509 109.23 77.7477 109.685C77.4445 110.139 77.0134 110.493 76.5089 110.703C76.0044 110.913 75.449 110.969 74.9127 110.864C74.3765 110.759 73.8833 110.498 73.4955 110.113C73.1077 109.728 72.8425 109.237 72.7334 108.702C72.6243 108.167 72.6763 107.611 72.8826 107.106C73.0889 106.6 73.4405 106.167 73.8929 105.86C74.3453 105.554 74.8784 105.388 75.4249 105.384C75.7923 105.373 76.1581 105.437 76.5 105.572C76.8419 105.706 77.1528 105.909 77.4137 106.168C77.6745 106.427 77.8799 106.736 78.0173 107.077C78.1547 107.418 78.2211 107.783 78.2127 108.15Z" fill="black"/>
<path d="M44.209 79.6382C44.1894 79.2784 44.2441 78.9185 44.3698 78.5808C44.4955 78.2431 44.6894 77.9349 44.9395 77.6754C45.1896 77.416 45.4905 77.2107 45.8234 77.0726C46.1564 76.9344 46.5142 76.8663 46.8747 76.8724C48.584 76.8521 49.6829 78.0722 49.6625 79.6382C49.6422 81.2041 48.2991 82.3429 46.9357 82.3633C45.5724 82.3836 44.1479 81.3058 44.209 79.6382Z" fill="black"/>
<path d="M65.1075 102.7C65.2093 103.92 64.1715 105.466 62.3197 105.466C61.5964 105.45 60.908 105.151 60.4022 104.634C59.8963 104.117 59.6131 103.423 59.6133 102.7C59.6132 102.341 59.6846 101.986 59.8231 101.655C59.9617 101.324 60.1647 101.024 60.4203 100.773C60.676 100.521 60.9791 100.323 61.3122 100.189C61.6453 100.056 62.0016 99.9897 62.3604 99.9951C62.7207 99.984 63.0795 100.046 63.4151 100.178C63.7507 100.309 64.0562 100.507 64.313 100.76C64.5698 101.013 64.7726 101.315 64.9091 101.649C65.0457 101.982 65.1132 102.34 65.1075 102.7Z" fill="black"/>
<path d="M115.492 52.3261C115.509 52.686 115.452 53.0456 115.325 53.3831C115.199 53.7205 115.005 54.0288 114.756 54.2892C114.507 54.5497 114.207 54.7569 113.876 54.8984C113.544 55.0398 113.187 55.1126 112.826 55.1122C111.219 55.1528 110.039 53.9733 110.018 52.3871C110.01 52.0233 110.075 51.6617 110.21 51.3237C110.345 50.9858 110.547 50.6785 110.803 50.4203C111.06 50.162 111.366 49.9582 111.703 49.8209C112.04 49.6836 112.401 49.6157 112.765 49.6213C114.332 49.601 115.614 51.0652 115.492 52.3261Z" fill="black"/>
<path d="M55.0756 92.6943C55.1773 94.0365 53.9564 95.4194 52.3692 95.4397C51.644 95.4506 50.944 95.1745 50.4217 94.6717C49.8994 94.1688 49.5974 93.4799 49.5813 92.7553C49.5702 92.3881 49.634 92.0225 49.7688 91.6808C49.9037 91.3391 50.1068 91.0284 50.3658 90.7677C50.6247 90.507 50.9341 90.3017 51.275 90.1644C51.616 90.0271 51.9813 89.9607 52.3488 89.9692C54.0174 89.9692 55.157 91.3317 55.0756 92.6943Z" fill="black"/>
<path d="M46.834 68.209C45.3486 68.1886 44.209 66.9481 44.1887 65.4025C44.1683 63.8569 45.7759 62.6164 47.0375 62.6978C48.2992 62.7791 49.7236 64.0603 49.6829 65.4635C49.6776 65.8312 49.5996 66.1941 49.4533 66.5315C49.307 66.8688 49.0953 67.1739 48.8305 67.4291C48.5657 67.6843 48.2529 67.8846 47.9103 68.0185C47.5676 68.1523 47.2019 68.2171 46.834 68.209Z" fill="black"/>
<path d="M115.492 92.7146C115.574 94.1381 114.251 95.4803 112.705 95.4397C111.158 95.399 109.998 94.3415 109.998 92.6942C109.995 92.3268 110.067 91.9626 110.209 91.6239C110.352 91.2851 110.561 90.9789 110.826 90.7239C111.091 90.4689 111.405 90.2704 111.749 90.1407C112.093 90.0109 112.459 89.9525 112.827 89.9691C114.394 89.9895 115.594 91.3113 115.492 92.7146Z" fill="black"/>
<path d="M118.158 82.3632C117.422 82.3472 116.722 82.041 116.211 81.5114C115.701 80.9819 115.42 80.2719 115.431 79.5364C115.452 78.8118 115.759 78.125 116.286 77.6259C116.812 77.1268 117.514 76.8559 118.239 76.8723C120.05 76.9334 121.007 78.2959 120.946 79.6991C120.94 80.0578 120.864 80.4119 120.72 80.7408C120.577 81.0696 120.369 81.3666 120.11 81.6146C119.85 81.8625 119.544 82.0564 119.209 82.1849C118.874 82.3134 118.517 82.374 118.158 82.3632Z" fill="black"/>
<path d="M102.754 45.0862C102.027 45.0863 101.329 44.8005 100.811 44.2906C100.293 43.7807 99.997 43.0876 99.9863 42.3611C99.9917 41.6238 100.287 40.9183 100.809 40.3969C101.33 39.8756 102.036 39.5803 102.774 39.575C103.995 39.575 105.521 40.6325 105.481 42.3408C105.486 42.7011 105.419 43.0589 105.284 43.3931C105.15 43.7273 104.949 44.0312 104.695 44.287C104.441 44.5427 104.139 44.7452 103.805 44.8824C103.472 45.0197 103.114 45.089 102.754 45.0862Z" fill="black"/>
<path d="M99.986 102.741C99.9779 102.381 100.042 102.024 100.175 101.69C100.307 101.356 100.506 101.052 100.758 100.795C101.01 100.539 101.312 100.337 101.644 100.199C101.976 100.062 102.333 99.9923 102.692 99.9951C104.32 99.9747 105.46 101.114 105.48 102.659C105.501 104.205 104.381 105.445 102.733 105.466C102.373 105.471 102.015 105.404 101.68 105.27C101.346 105.135 101.042 104.935 100.786 104.681C100.53 104.427 100.327 104.125 100.19 103.791C100.053 103.458 99.9833 103.101 99.986 102.741Z" fill="black"/>
<path d="M55.0757 52.3464C55.1164 53.892 53.9565 54.9698 52.41 55.1529C50.7414 55.0105 49.6222 54.0547 49.6018 52.3871C49.5815 50.7195 50.7007 49.6416 52.3693 49.6213C52.7272 49.6185 53.0821 49.6873 53.413 49.8235C53.7439 49.9598 54.0443 50.1607 54.2964 50.4146C54.5485 50.6685 54.7474 50.9701 54.8812 51.3019C55.015 51.6336 55.0812 51.9888 55.0757 52.3464Z" fill="black"/>
<path d="M75.4451 39.636C73.9596 39.7377 72.698 38.3955 72.698 36.9313C72.6895 36.564 72.756 36.1989 72.8934 35.8582C73.0307 35.5175 73.2361 35.2083 73.497 34.9495C73.7578 34.6907 74.0687 34.4877 74.4107 34.3529C74.7526 34.2181 75.1184 34.1543 75.4858 34.1655C77.1951 34.1858 78.2126 35.4874 78.2126 36.9719C78.2126 38.4565 76.9509 39.7784 75.4451 39.636Z" fill="black"/>
<path d="M89.608 39.6157C88.1836 39.7377 86.8813 38.3548 86.9016 36.8906C86.922 35.4263 88.0818 34.1451 89.6284 34.1451C89.9953 34.1477 90.358 34.2232 90.6955 34.3672C91.0329 34.5112 91.3383 34.7209 91.594 34.9839C91.8496 35.247 92.0503 35.5582 92.1845 35.8995C92.3187 36.2408 92.3836 36.6053 92.3755 36.9719C92.3755 38.3345 91.1546 39.758 89.608 39.6157Z" fill="black"/>
<path d="M86.9226 108.17C86.7801 106.605 88.2656 105.344 89.6697 105.384C90.3897 105.41 91.0722 105.712 91.5759 106.227C92.0797 106.742 92.3662 107.43 92.3761 108.15C92.3762 108.875 92.0895 109.57 91.5787 110.084C91.0679 110.599 90.3744 110.89 89.6494 110.896C88.1028 110.916 86.8005 109.574 86.9226 108.17Z" fill="black"/>
<path d="M89.9548 92.7959C89.6319 92.807 89.3101 92.7523 89.0091 92.6352C88.708 92.518 88.434 92.3408 88.2036 92.1144C87.9733 91.888 87.7914 91.6171 87.6692 91.3182C87.5469 91.0193 87.4868 90.6987 87.4926 90.3759C87.5129 88.8099 88.5304 88.0168 89.9141 87.8541C91.3792 88.0372 92.356 88.7489 92.3967 90.3149C92.417 90.6425 92.3681 90.9707 92.2531 91.2782C92.1382 91.5857 91.9597 91.8656 91.7294 92.0996C91.499 92.3337 91.222 92.5166 90.9163 92.6366C90.6105 92.7565 90.2829 92.8108 89.9548 92.7959Z" fill="black"/>
<path d="M93.7598 58.8541C93.7542 58.5304 93.8143 58.2089 93.9363 57.9089C94.0583 57.609 94.2398 57.3368 94.4698 57.1088C94.6999 56.8808 94.9737 56.7017 95.2748 56.5822C95.576 56.4628 95.8982 56.4055 96.2221 56.4137C96.5543 56.413 96.883 56.4806 97.188 56.6122C97.4929 56.7439 97.7675 56.9368 97.9946 57.1791C98.2217 57.4213 98.3965 57.7077 98.5082 58.0203C98.6199 58.333 98.666 58.6653 98.6436 58.9965C98.6247 59.6437 98.3493 60.257 97.878 60.7013C97.4067 61.1456 96.7781 61.3846 96.1305 61.3657C95.4829 61.3468 94.8693 61.0716 94.4247 60.6006C93.9801 60.1296 93.7409 59.5014 93.7598 58.8541Z" fill="black"/>
<path d="M89.9332 57.1662C88.6919 57.2272 87.4506 56.1291 87.4709 54.7055C87.4913 53.2819 88.5291 52.3465 89.9332 52.2041C91.2966 52.3871 92.3547 53.0989 92.3954 54.7055C92.4038 55.0309 92.3459 55.3547 92.2251 55.657C92.1043 55.9594 91.9233 56.234 91.6929 56.4642C91.4626 56.6944 91.1878 56.8753 90.8853 56.996C90.5828 57.1167 90.2588 57.1746 89.9332 57.1662Z" fill="black"/>
<path d="M75.1401 57.1662C73.736 57.2069 72.6372 55.9257 72.6779 54.6852C72.7186 53.4446 73.8174 52.3261 75.2011 52.2041C76.7273 52.4075 77.643 53.343 77.643 54.7462C77.643 56.1494 76.3814 57.2679 75.1401 57.1662Z" fill="black"/>
<path d="M75.1607 92.796C73.8584 92.8773 72.6374 91.5961 72.6985 90.3352C72.7595 89.0744 73.6956 87.8542 75.1811 87.8948C76.6666 87.9355 77.6637 89.0744 77.6433 90.3556C77.652 90.6819 77.5934 91.0065 77.4712 91.3092C77.3489 91.6119 77.1657 91.8862 76.9328 92.1151C76.7 92.344 76.4225 92.5226 76.1176 92.6397C75.8128 92.7569 75.487 92.81 75.1607 92.796Z" fill="black"/>
<path d="M65.6781 72.561C65.7391 73.8219 64.742 75.0014 63.2158 74.9811C62.6038 74.9279 62.0337 74.648 61.6176 74.1963C61.2015 73.7446 60.9694 73.1538 60.9668 72.5398C60.9643 71.9258 61.1915 71.3331 61.6038 70.8779C62.0162 70.4228 62.5839 70.1382 63.1955 70.0799C64.4571 70.0393 65.7798 71.0358 65.6781 72.561Z" fill="black"/>
<path d="M104.341 72.561C104.219 74.0456 103.303 74.9811 101.838 74.9811C101.51 74.9896 101.185 74.9311 100.881 74.8091C100.577 74.6872 100.301 74.5044 100.07 74.272C99.8397 74.0396 99.6591 73.7626 99.5396 73.4578C99.4201 73.1531 99.3642 72.8271 99.3754 72.5C99.4161 71.1375 100.332 70.08 101.878 70.08C103.425 70.08 104.361 71.4018 104.341 72.561Z" fill="black"/>
<path d="M85.0087 53.2412C85.0143 53.5676 84.9537 53.8918 84.8307 54.1942C84.7077 54.4966 84.5247 54.771 84.2927 55.0009C84.0608 55.2308 83.7847 55.4114 83.4811 55.5319C83.1775 55.6524 82.8527 55.7102 82.5261 55.7019C81.2238 55.6816 80.0639 54.7461 80.1046 53.2005C80.1453 51.655 81.2034 50.8212 82.5464 50.8008C83.8895 50.7805 85.1308 52.1227 85.0087 53.2412Z" fill="black"/>
<path d="M85.0089 91.8605C84.9886 93.2637 83.9915 94.3009 82.506 94.2805C81.0205 94.2602 80.0845 93.2434 80.1048 91.7791C80.1252 90.3149 81.1019 89.3591 82.5874 89.3591C84.0729 89.3591 85.131 90.7013 85.0089 91.8605Z" fill="black"/>
<path d="M68.9133 61.3556C68.2583 61.3556 67.6299 61.097 67.165 60.6361C66.7 60.1752 66.436 59.5493 66.4307 58.8948C66.4841 58.2779 66.7664 57.7033 67.2222 57.2838C67.678 56.8643 68.2742 56.6303 68.8938 56.6278C69.5134 56.6252 70.1115 56.8543 70.5707 57.27C71.0299 57.6857 71.317 58.258 71.3755 58.8745C71.3782 59.1993 71.3165 59.5215 71.1939 59.8224C71.0714 60.1233 70.8905 60.397 70.6616 60.6276C70.4327 60.8583 70.1603 61.0414 69.8602 61.1663C69.5602 61.2913 69.2383 61.3556 68.9133 61.3556Z" fill="black"/>
<path d="M102.855 65.1585C102.815 66.5821 101.818 67.5989 100.353 67.5989C98.8874 67.5989 97.9106 66.6431 97.931 65.0975C97.931 64.778 97.9943 64.4616 98.1172 64.1667C98.2402 63.8717 98.4204 63.604 98.6474 63.379C98.8744 63.1541 99.1438 62.9762 99.4399 62.8558C99.7361 62.7354 100.053 62.6748 100.373 62.6775C101.031 62.6775 101.663 62.9388 102.128 63.4041C102.594 63.8694 102.855 64.5005 102.855 65.1585Z" fill="black"/>
<path d="M100.353 77.4621C101.757 77.3808 102.856 78.601 102.856 79.8822C102.861 80.206 102.802 80.5278 102.681 80.8286C102.561 81.1293 102.382 81.4032 102.155 81.6341C101.928 81.8651 101.657 82.0485 101.358 82.1736C101.059 82.2988 100.738 82.3633 100.414 82.3632C100.088 82.3743 99.7636 82.3191 99.4601 82.2009C99.1566 82.0827 98.8803 81.904 98.6481 81.6757C98.4158 81.4474 98.2325 81.1743 98.1092 80.873C97.9859 80.5716 97.9253 80.2483 97.931 79.9228C97.9107 78.6416 98.8874 77.4214 100.353 77.4621Z" fill="black"/>
<path d="M68.9331 88.6066C68.6076 88.6204 68.2826 88.5678 67.9781 88.4522C67.6736 88.3365 67.3958 88.1601 67.1616 87.9337C66.9275 87.7073 66.7419 87.4356 66.6161 87.1353C66.4904 86.8349 66.4271 86.5121 66.4301 86.1865C66.4189 85.8621 66.4742 85.5388 66.5927 85.2365C66.7112 84.9342 66.8903 84.6594 67.1191 84.4289C67.3478 84.1984 67.6213 84.0171 67.9228 83.8962C68.2243 83.7753 68.5473 83.7173 68.872 83.7258C70.4999 83.7258 71.3343 84.9053 71.375 86.1458C71.3832 86.4695 71.3259 86.7915 71.2064 87.0925C71.0869 87.3934 70.9076 87.6671 70.6795 87.897C70.4513 88.1269 70.179 88.3083 69.8789 88.4302C69.5787 88.5522 69.257 88.6122 68.9331 88.6066Z" fill="black"/>
<path d="M96.2218 88.6066C94.8992 88.7082 93.7393 87.488 93.7393 86.1662C93.7897 85.5542 94.0674 84.9831 94.5177 84.5652C94.9679 84.1474 95.5583 83.9128 96.1727 83.9077C96.7872 83.9026 97.3814 84.1273 97.8385 84.5377C98.2956 84.948 98.5827 85.5144 98.6434 86.1255C98.6637 87.6507 97.3817 88.6879 96.2218 88.6066Z" fill="black"/>
<path d="M67.1422 65.1788C67.2643 66.338 66.2672 67.5786 64.741 67.5989C64.4155 67.6104 64.0911 67.5545 63.7883 67.4347C63.4854 67.3148 63.2107 67.1336 62.9813 66.9025C62.752 66.6714 62.573 66.3953 62.4556 66.0917C62.3381 65.788 62.2849 65.4634 62.2991 65.1382C62.3602 63.6943 63.3369 62.6774 64.741 62.6774C66.1451 62.6774 67.2847 63.6943 67.1422 65.1788Z" fill="black"/>
<path d="M67.1421 79.9839C67.2642 81.1837 66.0839 82.3633 64.7002 82.3633C64.3769 82.3579 64.0577 82.289 63.761 82.1604C63.4643 82.0318 63.1959 81.846 62.9711 81.6138C62.7462 81.3815 62.5693 81.1072 62.4505 80.8066C62.3317 80.506 62.2733 80.185 62.2787 79.8619C62.284 79.5387 62.353 79.2198 62.4817 78.9233C62.6103 78.6268 62.7962 78.3585 63.0286 78.1338C63.261 77.9091 63.5355 77.7323 63.8362 77.6135C64.137 77.4948 64.4582 77.4365 64.7816 77.4418C65.9415 77.4621 67.3049 78.54 67.1421 79.9839Z" fill="black"/>
<path d="M116.938 57.5323C116.938 57.0415 117.133 56.5707 117.48 56.2237C117.827 55.8766 118.298 55.6816 118.789 55.6816C119.888 55.7223 120.621 56.4544 120.661 57.5323C120.702 58.6101 119.746 59.4643 118.789 59.4032C118.3 59.3877 117.835 59.185 117.49 58.8369C117.145 58.4888 116.948 58.0218 116.938 57.5323Z" fill="black"/>
<path d="M108.472 100.198C108.484 99.8384 108.602 99.49 108.811 99.1967C109.02 98.9034 109.312 98.6784 109.648 98.5498C109.985 98.4213 110.352 98.3948 110.704 98.4738C111.055 98.5529 111.376 98.7338 111.625 98.9941C111.874 99.2543 112.041 99.5823 112.105 99.9369C112.168 100.291 112.126 100.657 111.982 100.987C111.839 101.318 111.601 101.599 111.299 101.795C110.997 101.991 110.643 102.094 110.283 102.09C110.037 102.093 109.793 102.046 109.567 101.951C109.34 101.856 109.136 101.715 108.966 101.538C108.796 101.36 108.664 101.15 108.579 100.919C108.494 100.689 108.458 100.444 108.472 100.198Z" fill="black"/>
<path d="M54.811 102.09C54.5662 102.093 54.3234 102.046 54.0972 101.952C53.871 101.859 53.6661 101.72 53.495 101.546C53.3238 101.371 53.1899 101.163 53.1013 100.935C53.0127 100.707 52.9713 100.463 52.9795 100.219C52.9999 98.9986 54.0174 98.4088 54.8517 98.3885C55.686 98.3681 56.622 99.2223 56.622 100.219C56.6362 100.463 56.5995 100.707 56.5143 100.937C56.4291 101.166 56.2972 101.375 56.127 101.551C55.9568 101.727 55.752 101.866 55.5255 101.958C55.299 102.051 55.0557 102.096 54.811 102.09Z" fill="black"/>
<path d="M67.5493 34.5112C68.6074 34.4299 69.401 35.4263 69.3807 36.3618C69.3726 36.8526 69.1697 37.3201 68.8167 37.6615C68.4637 38.0028 67.9895 38.19 67.4984 38.182C67.0073 38.1739 66.5395 37.9711 66.1979 37.6184C65.8564 37.2656 65.6691 36.7916 65.6771 36.3008C65.6364 35.3043 66.5115 34.4909 67.5493 34.5112Z" fill="black"/>
<path d="M118.809 85.7595C119.049 85.7302 119.293 85.7593 119.52 85.8442C119.747 85.9292 119.95 86.0675 120.111 86.2475C120.287 86.4146 120.425 86.6171 120.516 86.8414C120.607 87.0658 120.65 87.3071 120.641 87.5491C120.6 88.5659 119.949 89.3184 118.829 89.3591C118.579 89.3646 118.331 89.3195 118.099 89.2264C117.867 89.1333 117.656 88.9942 117.479 88.8175C117.302 88.6407 117.163 88.43 117.07 88.198C116.977 87.9661 116.931 87.7176 116.937 87.4677C116.972 86.9793 117.19 86.522 117.547 86.1865C117.893 85.8205 118.321 85.7391 118.809 85.7595Z" fill="black"/>
<path d="M44.4741 57.5322C44.352 56.6171 45.3491 55.6613 46.3055 55.6816C46.7842 55.6869 47.2417 55.8793 47.5802 56.2176C47.9187 56.5559 48.1113 57.0132 48.1165 57.4916C48.1247 57.7346 48.0848 57.9769 47.9992 58.2045C47.9136 58.4322 47.784 58.6408 47.6176 58.8183C47.4513 58.9958 47.2516 59.1389 47.03 59.2392C46.8083 59.3396 46.569 59.3953 46.3258 59.4032C45.5322 59.4235 44.3927 58.6507 44.4741 57.5322Z" fill="black"/>
<path d="M110.262 46.6115C110.024 46.6232 109.786 46.5848 109.564 46.499C109.341 46.4132 109.139 46.2818 108.97 46.1132C108.802 45.9447 108.67 45.7427 108.584 45.5203C108.498 45.2979 108.46 45.06 108.472 44.8219C108.472 43.6424 109.265 42.9509 110.303 42.9713C111.341 42.9916 112.074 43.6627 112.135 44.7405C112.196 45.8184 111.321 46.7335 110.262 46.6115Z" fill="black"/>
<path d="M121.8 70.69C122.043 70.6869 122.284 70.7337 122.508 70.8277C122.732 70.9216 122.935 71.0607 123.103 71.2362C123.271 71.4117 123.401 71.6199 123.485 71.8479C123.569 72.0758 123.605 72.3185 123.591 72.561C123.55 73.6592 122.899 74.3506 121.719 74.3303C120.539 74.31 119.948 73.3948 119.928 72.5203C119.908 71.6459 120.925 70.6087 121.8 70.69Z" fill="black"/>
<path d="M67.5705 106.91C67.8136 106.912 68.0538 106.963 68.2766 107.061C68.4994 107.158 68.7004 107.299 68.8675 107.475C69.0346 107.652 69.1644 107.86 69.2493 108.088C69.3341 108.316 69.3722 108.558 69.3612 108.801C69.3643 109.039 69.3185 109.276 69.2267 109.496C69.135 109.716 68.9992 109.915 68.8276 110.081C68.6561 110.246 68.4525 110.375 68.2293 110.459C68.0062 110.544 67.7681 110.581 67.5298 110.57C66.431 110.529 65.7187 109.838 65.678 108.72C65.6373 107.601 66.5734 106.889 67.5705 106.91Z" fill="black"/>
<path d="M97.5234 34.5112C98.6833 34.4299 99.3752 35.3857 99.3955 36.3008C99.3955 36.7881 99.2032 37.2558 98.8604 37.6023C98.5175 37.9488 98.0517 38.1461 97.5641 38.1515C97.0879 38.1372 96.6341 37.9459 96.2916 37.6149C95.9491 37.2839 95.7425 36.837 95.7123 36.3618C95.692 35.4467 96.4449 34.4299 97.5234 34.5112Z" fill="black"/>
<path d="M46.3459 85.7595C47.2819 85.6578 48.1366 86.4509 48.1162 87.5287C48.0959 88.6066 47.2412 89.3387 46.3052 89.359C46.0629 89.3591 45.8231 89.311 45.5996 89.2178C45.376 89.1245 45.1732 88.9879 45.0029 88.8158C44.8326 88.6437 44.6981 88.4395 44.6073 88.2151C44.5164 87.9907 44.4711 87.7505 44.4737 87.5084C44.5144 86.4306 45.2063 85.7391 46.3459 85.7595Z" fill="black"/>
<path d="M43.355 70.6901C43.6007 70.6869 43.8444 70.7343 44.071 70.8292C44.2975 70.9242 44.5021 71.0648 44.672 71.2422C44.8419 71.4196 44.9734 71.63 45.0584 71.8604C45.1434 72.0908 45.1801 72.3362 45.1661 72.5814C45.1457 73.4965 44.4946 74.371 43.2533 74.3507C43.0154 74.3454 42.7809 74.2933 42.5632 74.1974C42.3455 74.1016 42.1488 73.9638 41.9844 73.7919C41.82 73.6201 41.6911 73.4175 41.6051 73.1958C41.519 72.9742 41.4775 72.7377 41.4829 72.5C41.4625 71.5442 42.3986 70.5884 43.355 70.6901Z" fill="black"/>
<path d="M80.7153 33.3521C80.6868 33.0943 80.7128 32.8334 80.7916 32.5863C80.8704 32.3392 81.0003 32.1114 81.1729 31.9177C81.3455 31.724 81.5569 31.5688 81.7933 31.462C82.0298 31.3552 82.2861 31.2993 82.5456 31.2978C82.8051 31.2964 83.062 31.3495 83.2997 31.4537C83.5373 31.5578 83.7504 31.7108 83.9251 31.9025C84.0998 32.0943 84.2323 32.3206 84.3138 32.5668C84.3954 32.8131 84.4242 33.0736 84.3985 33.3317C84.3985 33.5685 84.3516 33.8028 84.2603 34.0213C84.169 34.2398 84.0353 34.438 83.8669 34.6044C83.6984 34.7709 83.4986 34.9023 83.279 34.991C83.0594 35.0797 82.8243 35.124 82.5875 35.1213C82.3459 35.1382 82.1034 35.1049 81.8754 35.0233C81.6473 34.9417 81.4387 34.8137 81.2628 34.6474C81.0868 34.4811 80.9473 34.2801 80.8531 34.0571C80.7588 33.8342 80.7119 33.5941 80.7153 33.3521Z" fill="black"/>
<path d="M82.5879 109.879C83.4019 109.818 84.4397 110.611 84.3787 111.77C84.3176 112.929 83.6868 113.56 82.4862 113.56C81.2856 113.56 80.7158 112.726 80.7158 111.709C80.7158 110.692 81.7536 109.777 82.5879 109.879Z" fill="black"/>
<path d="M54.7911 46.6115C53.7126 46.6115 52.9801 45.8591 53.0004 44.7812C53.0208 43.7034 53.794 42.9306 54.7911 42.9713C55.7882 43.0119 56.6226 43.622 56.6226 44.8016C56.6226 45.9811 55.7882 46.7132 54.7911 46.6115Z" fill="black"/>
<path d="M99.3758 108.781C99.4165 109.899 98.4397 110.59 97.5037 110.57C97.2605 110.562 97.0212 110.507 96.7995 110.406C96.5779 110.306 96.3782 110.163 96.2119 109.985C96.0455 109.808 95.9159 109.599 95.8303 109.371C95.7447 109.144 95.7048 108.902 95.713 108.658C95.7532 108.187 95.9668 107.747 96.3126 107.424C96.6584 107.101 97.1118 106.918 97.5851 106.91C97.8272 106.909 98.0669 106.958 98.2897 107.053C98.5124 107.148 98.7136 107.287 98.881 107.462C99.0484 107.637 99.1785 107.844 99.2636 108.071C99.3486 108.297 99.3868 108.539 99.3758 108.781Z" fill="black"/>
<path d="M74.1833 32.0505C73.2268 32.0708 72.6367 31.1963 72.6367 30.5049C72.6367 29.8135 73.3693 28.9593 74.2443 29C74.4475 29.0104 74.6466 29.0608 74.8303 29.1482C75.014 29.2357 75.1786 29.3585 75.3147 29.5096C75.4508 29.6607 75.5557 29.8372 75.6234 30.029C75.6912 30.2207 75.7204 30.4239 75.7094 30.6269C75.7042 30.821 75.6604 31.0121 75.5806 31.1891C75.5008 31.3661 75.3865 31.5255 75.2445 31.658C75.1025 31.7905 74.9355 31.8934 74.7533 31.9608C74.5711 32.0281 74.3774 32.0586 74.1833 32.0505Z" fill="black"/>
<path d="M118.157 97.8191C117.486 97.9005 116.672 97.2497 116.652 96.3345C116.646 95.93 116.802 95.5399 117.084 95.2501C117.367 94.9602 117.753 94.7943 118.157 94.789C118.562 94.7836 118.952 94.9391 119.242 95.2213C119.533 95.5035 119.698 95.8893 119.704 96.2939C119.707 96.4967 119.668 96.6979 119.591 96.8856C119.514 97.0733 119.4 97.2434 119.256 97.3859C119.111 97.5284 118.94 97.6402 118.751 97.7146C118.562 97.7891 118.36 97.8246 118.157 97.8191Z" fill="black"/>
<path d="M46.9361 97.8191C46.5645 97.7736 46.2226 97.5931 45.9755 97.3121C45.7284 97.0311 45.5932 96.6691 45.5957 96.295C45.5982 95.9209 45.7383 95.5607 45.9891 95.283C46.24 95.0054 46.5843 94.8295 46.9564 94.789C47.1542 94.7863 47.3505 94.8225 47.5342 94.8957C47.718 94.9688 47.8855 95.0775 48.0272 95.2153C48.1689 95.3532 48.2821 95.5176 48.3602 95.6992C48.4384 95.8807 48.4799 96.0759 48.4826 96.2735C48.4826 97.3107 47.5872 97.9005 46.9361 97.8191Z" fill="black"/>
<path d="M74.2034 116C73.9997 116.008 73.7966 115.975 73.6065 115.902C73.4163 115.828 73.2434 115.716 73.0983 115.573C72.9533 115.43 72.8392 115.259 72.7633 115.07C72.6873 114.881 72.6511 114.678 72.6568 114.475C72.6769 114.079 72.8448 113.704 73.1273 113.426C73.4098 113.147 73.7864 112.985 74.183 112.97C74.5759 112.974 74.9524 113.128 75.2358 113.4C75.5193 113.672 75.6886 114.042 75.7092 114.434C75.7204 114.637 75.6896 114.841 75.6187 115.032C75.5478 115.223 75.4383 115.397 75.297 115.544C75.1558 115.691 74.9858 115.807 74.7976 115.886C74.6095 115.964 74.4072 116.003 74.2034 116Z" fill="black"/>
<path d="M42.0528 80.899C42.0935 81.8142 41.2795 82.4242 40.5062 82.4039C39.733 82.3836 38.9801 81.6515 39.0004 80.899C39.0004 80.4891 39.1633 80.096 39.4534 79.8061C39.7434 79.5163 40.1368 79.3534 40.5469 79.3534C40.749 79.3505 40.9495 79.3888 41.1362 79.4659C41.3229 79.5431 41.4919 79.6575 41.6329 79.8022C41.7738 79.9469 41.8837 80.1187 41.9559 80.3073C42.0281 80.4959 42.0611 80.6973 42.0528 80.899Z" fill="black"/>
<path d="M119.704 48.8282C119.678 49.2238 119.501 49.5942 119.21 49.8629C118.918 50.1317 118.534 50.2782 118.137 50.2721C117.12 50.2517 116.632 49.4383 116.652 48.6858C116.672 47.9334 117.405 47.1606 118.199 47.2216C118.992 47.2826 119.765 48.1367 119.704 48.8282Z" fill="black"/>
<path d="M104.85 108.13C104.842 107.934 104.873 107.739 104.942 107.555C105.01 107.372 105.115 107.204 105.25 107.062C105.385 106.92 105.546 106.806 105.726 106.727C105.905 106.649 106.099 106.607 106.295 106.604C106.497 106.593 106.698 106.624 106.888 106.693C107.078 106.763 107.251 106.871 107.398 107.009C107.545 107.148 107.662 107.316 107.741 107.502C107.821 107.687 107.862 107.887 107.862 108.089C107.862 108.903 107.414 109.574 106.356 109.655C106.155 109.661 105.955 109.625 105.768 109.55C105.581 109.475 105.412 109.363 105.271 109.22C105.13 109.077 105.019 108.906 104.947 108.719C104.874 108.531 104.841 108.331 104.85 108.13Z" fill="black"/>
<path d="M90.9105 32.0505C90.0151 32.0505 89.3029 31.3387 89.3843 30.5049C89.3948 30.1056 89.5596 29.7259 89.8441 29.4453C90.1286 29.1647 90.5108 29.0052 90.9105 29C91.5209 28.9797 92.4366 29.6305 92.4366 30.5049C92.4366 31.3794 91.6837 32.1115 90.9105 32.0505Z" fill="black"/>
<path d="M126.094 80.8583C126.102 81.0618 126.069 81.2649 125.995 81.4549C125.922 81.6449 125.81 81.8177 125.667 81.9627C125.524 82.1077 125.352 82.2216 125.163 82.2975C124.974 82.3734 124.771 82.4097 124.568 82.4039C123.733 82.4039 123.143 81.9362 123.062 80.96C123.045 80.7567 123.07 80.5522 123.136 80.3591C123.202 80.1661 123.307 79.9886 123.444 79.8379C123.582 79.6871 123.749 79.5663 123.935 79.483C124.121 79.3996 124.323 79.3555 124.527 79.3534C124.934 79.3479 125.326 79.5028 125.619 79.7845C125.913 80.0661 126.083 80.4519 126.094 80.8583Z" fill="black"/>
<path d="M104.85 36.9313C104.841 36.7296 104.875 36.5282 104.949 36.3403C105.022 36.1523 105.135 35.9819 105.279 35.8401C105.423 35.6983 105.594 35.5882 105.784 35.5169C105.973 35.4457 106.174 35.4148 106.376 35.4264C106.573 35.4264 106.768 35.4654 106.949 35.5413C107.131 35.6172 107.296 35.7284 107.434 35.8684C107.572 36.0084 107.681 36.1745 107.755 36.3569C107.828 36.5394 107.864 36.7346 107.862 36.9313C107.841 37.8261 107.353 38.4362 106.315 38.4362C105.277 38.4362 104.83 37.6634 104.85 36.9313Z" fill="black"/>
<path d="M46.9568 50.2721C46.5609 50.2776 46.1788 50.127 45.8931 49.8529C45.6075 49.5789 45.4413 49.2034 45.4307 48.8078C45.4307 47.8927 46.0208 47.1809 46.9161 47.2419C47.8115 47.3029 48.4423 47.8317 48.483 48.7672C48.4777 49.1682 48.3145 49.5509 48.0289 49.8326C47.7432 50.1142 47.3581 50.2721 46.9568 50.2721Z" fill="black"/>
<path d="M90.9302 116C90.0145 116 89.3226 115.349 89.3836 114.475C89.4447 113.6 89.9941 113.01 90.9098 112.99C91.1073 112.982 91.3044 113.014 91.4893 113.084C91.6741 113.154 91.8429 113.26 91.9855 113.397C92.1281 113.534 92.2415 113.698 92.3189 113.88C92.3963 114.061 92.4362 114.257 92.436 114.454C92.436 115.268 91.9069 116.02 90.9302 116Z" fill="black"/>
<path d="M57.2735 36.911C57.1921 36.1178 57.8432 35.4264 58.7386 35.4264C59.1526 35.4263 59.5503 35.5878 59.8468 35.8765C60.1433 36.1653 60.3152 36.5584 60.3258 36.972C60.2913 37.3626 60.115 37.7271 59.8301 37.9969C59.5452 38.2666 59.1715 38.4228 58.7793 38.4362C57.8229 38.4159 57.2124 37.8058 57.2735 36.911Z" fill="black"/>
<path d="M57.2732 108.15C57.2588 107.949 57.287 107.746 57.3557 107.556C57.4245 107.367 57.5323 107.193 57.6723 107.047C57.8123 106.902 57.9814 106.787 58.1685 106.711C58.3556 106.635 58.5566 106.598 58.7586 106.605C59.7354 106.605 60.2441 107.337 60.2848 108.13C60.3255 108.923 59.5319 109.675 58.718 109.655C58.3275 109.644 57.957 109.48 57.6866 109.199C57.4162 108.917 57.2677 108.54 57.2732 108.15Z" fill="black"/>
<path d="M40.5268 62.6774C40.7285 62.6658 40.9304 62.6967 41.1194 62.7679C41.3085 62.8392 41.4805 62.9493 41.6243 63.0911C41.7681 63.2329 41.8806 63.4033 41.9544 63.5913C42.0282 63.7792 42.0618 63.9806 42.0529 64.1823C42.0556 64.3773 42.0199 64.5708 41.9477 64.752C41.8755 64.9331 41.7683 65.0983 41.6323 65.238C41.4962 65.3778 41.334 65.4894 41.1547 65.5665C40.9755 65.6435 40.7829 65.6846 40.5878 65.6872C39.5907 65.6872 39.0413 65.0771 39.0209 64.2026C39.0006 63.3282 39.7331 62.596 40.5268 62.6774Z" fill="black"/>
<path d="M124.588 62.6774C124.987 62.6855 125.367 62.8518 125.644 63.1398C125.92 63.4277 126.071 63.8137 126.063 64.2128C126.055 64.612 125.889 64.9915 125.601 65.268C125.313 65.5445 124.926 65.6953 124.527 65.6873C123.55 65.6262 123.062 64.9958 123.041 64.1823C123.021 63.3689 123.713 62.5554 124.588 62.6774Z" fill="black"/>
</g>
<defs>
<clipPath id="clip0">
<rect width="239" height="87" fill="black" transform="translate(39 29)"/>
</clipPath>
</defs>
</svg>
