<svg width="316" height="144" viewBox="0 0 316 144" fill="none" xmlns="http://www.w3.org/2000/svg">
<path fill-rule="evenodd" clip-rule="evenodd" d="M63.6138 72.2006C63.6138 58.9488 74.1978 48 89.7265 48C105.11 48 115.825 58.9488 115.825 72.2006C115.825 86.2921 104.138 96 89.7265 96C75.3054 96 63.6138 86.1515 63.6138 72.2006ZM69.9446 72.2136C69.9446 82.6139 78.7966 91.2474 89.5401 91.2474C100.279 91.2474 109.548 82.6135 109.548 72.2136C109.548 61.8275 101.248 52.7805 89.9566 52.7805C78.3788 52.7805 69.9446 61.8275 69.9446 72.2136ZM182.482 53.501L187.117 48.2941H197.032L182.482 53.501ZM203.561 92.7705H169.327V54.4833H203.561V58.6497H175.196V70.9773H196.501V75.2083H175.196V88.5888H203.561V92.7705ZM261.031 88.5888V54.4833H255.681V92.7705H290.288V88.5888H261.031ZM206.276 92.7705L225.743 54.4833H233.237L252.721 92.7705H246.208L241.185 82.8606H217.837L212.856 92.7705H206.276ZM229.474 59.7739L220.301 78.0615H238.756L229.474 59.7739ZM150.75 76.7606C159.522 74.4201 160.374 67.8937 160.329 65.5605C159.806 58.7207 155.197 54.4833 146.917 54.4833H122.785V92.7705H128.287V76.7095H143.997L155.554 92.7705H162.488C162.488 92.7705 154.17 81.9613 150.75 76.7606ZM146.166 72.1857H128.287V59.0151H146.789C151.049 59.0151 153.445 61.0038 154.308 63.53C154.879 65.2617 154.513 67.5349 153.568 69.0825C152.022 71.6412 149.085 72.1857 146.166 72.1857ZM49.7592 68.028H53.7286L60.9335 54.4833H55.1356L49.7592 68.028ZM30.3539 54.4833V88.5888H59.6066V92.7705H25V54.4833H30.3539Z" fill="black"/>
</svg>
