<svg width="316" height="144" viewBox="0 0 316 144" fill="none" xmlns="http://www.w3.org/2000/svg">
<path fill-rule="evenodd" clip-rule="evenodd" d="M51.1982 47C44.7307 47 41.1736 50.7353 37.681 55.2435C35.0294 50.2201 30.6962 47.0644 25.5221 47.0644C16.0795 47.0644 10 56.7892 10 64.3243C10 79.5877 23.4525 87.8312 37.8751 87.8312V94.546C37.8751 95.9686 39.3878 96.8929 40.657 96.2399C52.9176 89.932 66.5956 76.3677 66.6557 64.5819C66.6557 53.7622 59.8 47 51.1982 47ZM56.4102 66.0673H53.9635V68.4982C53.9635 69.8407 52.8681 70.9291 51.5168 70.9291C50.1656 70.9291 49.0702 69.8407 49.0702 68.4982V66.0673H46.6235C45.2722 66.0673 44.1768 64.9789 44.1768 63.6364C44.1768 62.2938 45.2722 61.2055 46.6235 61.2055H49.0702V58.7746C49.0702 57.432 50.1656 56.3437 51.5168 56.3437C52.8681 56.3437 53.9635 57.432 53.9635 58.7746V61.2055H56.4102C57.7614 61.2055 58.8568 62.2938 58.8568 63.6364C58.8568 64.9789 57.7614 66.0673 56.4102 66.0673ZM165.658 77.5962C166.812 76.6855 167.652 75.6857 168.178 74.5985V65.3405C166.717 63.1952 164.599 62.1222 161.822 62.1222C159.572 62.1222 157.666 62.9022 156.102 64.4589C154.538 66.0173 153.757 68.0594 153.757 70.5876C153.757 73.1433 154.488 75.1791 155.949 76.6926C157.41 78.2052 159.294 78.9623 161.603 78.9623C163.152 78.9623 164.503 78.507 165.658 77.5962ZM168.178 79.3594C167.681 80.1528 166.804 80.8728 165.548 81.5189C164.291 82.1665 162.801 82.4895 161.077 82.4895C157.717 82.4895 155.006 81.4306 152.946 79.3153C150.886 77.1991 149.856 74.3188 149.856 70.675C149.856 67.1478 150.966 64.2612 153.187 62.0135C155.408 59.7642 158.14 58.6399 161.384 58.6399C164.423 58.6399 166.688 59.3899 168.178 60.8884V49.9122H171.859V82.0924H168.178V79.3594ZM117.814 82.2551H121.496V67.0458C121.496 64.2254 120.765 62.1525 119.304 60.8313C117.843 59.5085 115.841 58.8475 113.299 58.8475C110.084 58.8475 107.586 60.0372 105.803 62.4173C104.577 60.0372 102.341 58.8475 99.097 58.8475C97.607 58.8475 96.2408 59.1776 94.9992 59.8386C93.7567 60.5004 92.8003 61.3608 92.1281 62.4173V59.3321H88.4463V82.2551H92.1281V66.9584C92.6248 65.7538 93.4285 64.6807 94.5385 63.7408C95.6494 62.8001 96.9349 62.3298 98.3959 62.3298C99.8568 62.3298 101.012 62.7631 101.859 63.6297C102.706 64.4972 103.13 65.6214 103.13 67.0033V82.2551H106.812V66.5172C108.127 63.7251 110.216 62.3298 113.08 62.3298C116.236 62.3298 117.814 64.2837 117.814 68.1921V82.2551ZM128.995 68.679C129.288 66.7386 130.083 65.181 131.384 64.0056C132.684 62.8301 134.372 62.2424 136.447 62.2424C138.492 62.2424 140.122 62.8072 141.334 63.9394C142.547 65.0707 143.211 66.6503 143.329 68.679H128.995ZM137.236 82.6971C141.21 82.6971 144.248 81.1096 146.352 77.9362L143.986 75.7318C143.284 76.7599 142.342 77.5974 141.159 78.2434C139.975 78.8911 138.711 79.2141 137.367 79.2141C134.971 79.2141 133.013 78.5822 131.493 77.3185C129.974 76.0548 129.156 74.2916 129.038 72.0289H147.01C147.156 71.1765 147.23 70.2508 147.23 69.251C147.23 66.1359 146.236 63.6234 144.248 61.7129C142.262 59.8032 139.749 58.8475 136.709 58.8475C133.027 58.8475 130.171 59.9647 128.14 62.1974C126.109 64.4318 125.094 67.2972 125.094 70.7944C125.094 74.409 126.204 77.2965 128.425 79.4559C130.646 81.617 133.583 82.6971 137.236 82.6971ZM193.273 81.3515C195.026 80.4549 196.327 79.1991 197.174 77.5824L194.544 75.6877C192.996 78.0386 190.863 79.2133 188.145 79.2133C185.573 79.2133 183.491 78.442 181.899 76.8994C180.306 75.3568 179.51 73.321 179.51 70.7944C179.51 68.3253 180.277 66.2974 181.811 64.7099C183.345 63.1232 185.295 62.3298 187.663 62.3298C190.351 62.3298 192.455 63.3729 193.975 65.4591L196.823 63.5202C196.064 62.1092 194.844 60.9786 193.163 60.1262C191.483 59.2738 189.62 58.8475 187.575 58.8475C184.039 58.8475 181.161 59.9781 178.94 62.2416C176.719 64.5042 175.609 67.3555 175.609 70.7944C175.609 74.409 176.726 77.2965 178.962 79.4559C181.197 81.6162 184.141 82.6963 187.794 82.6963C189.694 82.6963 191.52 82.2481 193.273 81.3515ZM205.066 76.8333C206.585 78.4208 208.543 79.2133 210.94 79.2133C213.365 79.2133 215.345 78.4349 216.879 76.8774C218.413 75.3198 219.18 73.2919 219.18 70.7944C219.18 68.2954 218.398 66.2612 216.835 64.6887C215.272 63.1161 213.306 62.3298 210.94 62.3298C208.572 62.3298 206.622 63.109 205.088 64.6666C203.553 66.2242 202.786 68.2662 202.786 70.7944C202.786 73.2336 203.546 75.2457 205.066 76.8333ZM202.239 62.1974C204.475 59.9647 207.375 58.8475 210.94 58.8475C214.534 58.8475 217.456 59.9647 219.706 62.1974C221.956 64.4318 223.081 67.2971 223.081 70.7944C223.081 74.2617 221.948 77.1121 219.684 79.3456C217.42 81.5792 214.505 82.6963 210.94 82.6963C207.404 82.6963 204.511 81.5792 202.261 79.3456C200.01 77.1121 198.885 74.2617 198.885 70.7944C198.885 67.2971 200.003 64.4318 202.239 62.1974ZM259.302 74.5985C258.776 75.6857 257.937 76.6855 256.782 77.5962C255.627 78.507 254.276 78.9623 252.727 78.9623C250.419 78.9623 248.534 78.2052 247.073 76.6926C245.612 75.1791 244.882 73.1433 244.882 70.5876C244.882 68.0594 245.663 66.0173 247.227 64.4589C248.79 62.9022 250.697 62.1222 252.947 62.1222C255.723 62.1222 257.841 63.1952 259.302 65.3405V74.5985ZM256.672 81.5189C257.929 80.8728 258.806 80.1528 259.302 79.3594V82.0924H262.984V49.9122H259.302V60.8884C257.812 59.3899 255.548 58.6399 252.508 58.6399C249.265 58.6399 246.533 59.7642 244.312 62.0135C242.091 64.2612 240.981 67.1478 240.981 70.675C240.981 74.3188 242.011 77.1991 244.07 79.3153C246.131 81.4306 248.841 82.4895 252.202 82.4895C253.926 82.4895 255.416 82.1665 256.672 81.5189ZM273.518 64.0056C272.218 65.181 271.422 66.7386 271.13 68.679H285.463C285.346 66.6503 284.681 65.0707 283.469 63.9394C282.256 62.8072 280.627 62.2424 278.581 62.2424C276.506 62.2424 274.819 62.8301 273.518 64.0056ZM288.487 77.9362C286.383 81.1096 283.344 82.6971 279.37 82.6971C275.717 82.6971 272.78 81.617 270.559 79.4559C268.339 77.2965 267.229 74.409 267.229 70.7944C267.229 67.2972 268.244 64.4318 270.274 62.1974C272.306 59.9647 275.162 58.8475 278.844 58.8475C281.883 58.8475 284.396 59.8032 286.383 61.7129C288.37 63.6234 289.364 66.1359 289.364 69.251C289.364 70.2508 289.291 71.1765 289.145 72.0289H271.173C271.29 74.2916 272.108 76.0548 273.628 77.3185C275.148 78.5822 277.105 79.2141 279.502 79.2141C280.846 79.2141 282.109 78.8911 283.293 78.2434C284.477 77.5974 285.418 76.7599 286.12 75.7318L288.487 77.9362ZM296.663 59.3321H292.981V82.2551H296.663V66.2966C296.926 65.1211 297.46 64.1663 298.263 63.4312C299.067 62.6969 299.966 62.3298 300.959 62.3298C302.216 62.3298 303.121 62.7111 303.677 63.4761L306 60.9188C304.918 59.5377 303.369 58.8475 301.354 58.8475C300.36 58.8475 299.424 59.0303 298.548 59.3982C297.671 59.7654 297.043 60.331 296.663 61.0953V59.3321ZM226.619 59.3321H230.301V61.0953C230.681 60.331 231.309 59.7654 232.185 59.3982C233.062 59.0303 233.997 58.8475 234.991 58.8475C237.007 58.8475 238.556 59.5377 239.638 60.9188L237.314 63.4761C236.759 62.7111 235.853 62.3298 234.597 62.3298C233.603 62.3298 232.705 62.6969 231.901 63.4312C231.097 64.1663 230.564 65.1211 230.301 66.2966V82.2551H226.619V59.3321Z" fill="black"/>
</svg>
