<svg width="316" height="144" viewBox="0 0 316 144" fill="none" xmlns="http://www.w3.org/2000/svg">
<path fill-rule="evenodd" clip-rule="evenodd" d="M54.5322 100H25V43.0058H281.056C292.66 42.6083 295.872 62.7653 281.056 64.3343H54.5322V100ZM54.5322 56.2965V51.0017C54.5322 51.0017 248.682 50.9055 249.078 51.0017C251.683 51.6884 251.881 55.3145 249.078 56.2965H54.5322Z" fill="black"/>
<path d="M64.6325 100H81.5523V69.1017H64.6325V100Z" fill="black"/>
<path fill-rule="evenodd" clip-rule="evenodd" d="M91.587 100H108.612V90.5313H112.79L118.007 100H138.342L130.817 89.7483C139.345 85.6299 138.642 68.611 125.637 69.1021H91.587V100ZM108.612 82.6875V76.9442H115.197C121.323 76.9442 121.423 82.6875 115.299 82.6875H108.612Z" fill="black"/>
<path d="M145.729 69.1021V100H182.689V92.1939H163.052V88.0799H180.684V80.4708H163.161V76.9442H181.387V69.1021H145.729Z" fill="black"/>
<path d="M191.724 100V69.1021H209.145V92.1034H225.065V100H191.724Z" fill="black"/>
<path d="M229.423 69.1021V100H262.759V92.1034H246.845V69.1021H229.423Z" fill="black"/>
<path d="M284.7 100H267.777V69.1017H284.7V100Z" fill="black"/>
</svg>
