<svg fill="none" height="144" viewBox="0 0 316 144" width="316" xmlns="http://www.w3.org/2000/svg"><path clip-rule="evenodd" d="m137.441 110.318c0-3.06-2.623-5.537-5.682-5.537-3.06 0-5.537 2.623-5.537 5.683 0 3.059 2.623 5.536 5.683 5.536 3.059 0 5.536-2.623 5.536-5.682zm85.815-55.6557 16.9 37.8807 16.901-37.8807c.146-.5828.728-.8742 1.311-.8742h5.974c.582 0 1.02.2914 1.311.7285.291.437.437 1.0198.146 1.4569l-24.332 52.1585c-.145.292-.437.583-.728.729-.728.437-1.603 0-1.894-.729l-24.185-52.1585c-.292-.4371-.292-1.0199 0-1.4569.291-.4371.728-.7285 1.311-.7285h5.973c.583 0 1.02.2914 1.312.8742zm-18.795 52.8877v-52.1593c0-.8741-.583-1.6026-1.457-1.6026h-5.974c-.874 0-1.457.5828-1.457 1.4569v52.305c0 .874.583 1.457 1.457 1.457h5.974c.874 0 1.457-.583 1.457-1.457zm-17.629-47.6427c0-3.0596-2.623-5.5364-5.682-5.5364-3.206 0-5.683 2.4768-5.537 5.6821 0 3.0596 2.623 5.5364 5.682 5.5364 3.06 0 5.537-2.6225 5.537-5.6821zm-35.841 0c0-3.0596-2.623-5.5364-5.682-5.5364-3.06 0-5.537 2.4768-5.537 5.6821 0 3.0596 2.623 5.5364 5.682 5.5364 3.06 0 5.537-2.6225 5.537-5.6821zm-19.961 9.6159c.292-22.5828-17.774-41.2318-40.3572-41.5232-21.1258 0-38.6093 16.1722-40.5033 37.1523-2.0398 22.4371 14.5695 42.2517 37.0066 44.2917.4371 0 .8742-.146 1.1656-.437.2914-.292.437-.729.437-1.166v-6.993c0-.729-.5827-1.4573-1.3112-1.4573-15.298-1.894-26.9536-14.7152-27.0993-30.3046-.1457-16.9007 13.4039-30.8874 30.4503-31.1788 9.1788.1457 17.6295 4.3708 23.4565 11.3642 10.782 13.2583 8.888 32.6358-4.37 43.4172l-.146.1457c-.583.5828-.583 1.6027 0 2.1855l9.907 10.0531c.583.583 1.457.583 2.04 0l4.954-4.954c.582-.5826.582-1.6024 0-2.1852l-4.08-4.0795c5.391-6.9934 8.305-15.4437 8.45-24.3311zm41.669 26.5163c-2.477 2.4768-5.973 3.9338-9.47 3.9338s-6.993-1.457-9.47-3.9338-4.08-5.9735-4.08-9.6159v-9.9073c0-.8741-.582-1.4569-1.457-1.4569h-5.973c-.874 0-1.457.5828-1.457 1.4569v9.9073c0 5.9735 2.331 11.8013 6.556 16.0264l.292.291c8.741 8.597 22.728 8.451 31.324-.291 4.225-4.2251 6.556-10.0529 6.556-16.0264v-9.9073c0-.8741-.582-1.4569-1.457-1.4569h-5.973c-.874 0-1.457.5828-1.457 1.4569v9.9073c0 3.6424-1.457 6.9934-3.934 9.6159z" fill="black" fill-rule="evenodd"/></svg>